{"asset":{"version":"2.0","generator":"babylon.js glTF exporter for 3dsmax 2022 v20210811.2"},"scene":0,"scenes":[{"nodes":[0]}],"nodes":[{"mesh":0,"name":"160921"}],"meshes":[{"primitives":[{"attributes":{"POSITION":1,"NORMAL":2,"TEXCOORD_0":3},"indices":0,"material":0},{"attributes":{"POSITION":5,"NORMAL":6,"TEXCOORD_0":7},"indices":4,"material":1},{"attributes":{"POSITION":9,"NORMAL":10,"TEXCOORD_0":11},"indices":8,"material":2},{"attributes":{"POSITION":13,"NORMAL":14,"TEXCOORD_0":15},"indices":12,"material":3},{"attributes":{"POSITION":17,"NORMAL":18,"TEXCOORD_0":19},"indices":16,"material":4},{"attributes":{"POSITION":21,"NORMAL":22,"TEXCOORD_0":23},"indices":20,"material":5},{"attributes":{"POSITION":25,"NORMAL":26,"TEXCOORD_0":27},"indices":24,"material":6},{"attributes":{"POSITION":29,"NORMAL":30,"TEXCOORD_0":31},"indices":28,"material":7},{"attributes":{"POSITION":33,"NORMAL":34,"TEXCOORD_0":35},"indices":32,"material":8}],"name":"160921"}],"accessors":[{"bufferView":0,"componentType":5125,"count":158085,"type":"SCALAR","name":"accessorIndices"},{"bufferView":1,"componentType":5126,"count":102585,"max":[205.5787,193.04,-28.9928284],"min":[0.9729673,0.0,-752.2667],"type":"VEC3","name":"accessorPositions"},{"bufferView":1,"byteOffset":1231020,"componentType":5126,"count":102585,"type":"VEC3","name":"accessorNormals"},{"bufferView":2,"componentType":5126,"count":102585,"type":"VEC2","name":"accessorUVs"},{"bufferView":0,"byteOffset":632340,"componentType":5125,"count":462,"type":"SCALAR","name":"accessorIndices"},{"bufferView":1,"byteOffset":2462040,"componentType":5126,"count":308,"max":[190.631577,171.577,-86.4595642],"min":[14.3555717,12.573,-646.2014],"type":"VEC3","name":"accessorPositions"},{"bufferView":1,"byteOffset":2465736,"componentType":5126,"count":308,"type":"VEC3","name":"accessorNormals"},{"bufferView":2,"byteOffset":820680,"componentType":5126,"count":308,"type":"VEC2","name":"accessorUVs"},{"bufferView":0,"byteOffset":634188,"componentType":5125,"count":6,"type":"SCALAR","name":"accessorIndices"},{"bufferView":1,"byteOffset":2469432,"componentType":5126,"count":4,"max":[108.716576,86.868,-613.664],"min":[108.716576,26.67,-642.62],"type":"VEC3","name":"accessorPositions"},{"bufferView":1,"byteOffset":2469480,"componentType":5126,"count":4,"type":"VEC3","name":"accessorNormals"},{"bufferView":2,"byteOffset":823144,"componentType":5126,"count":4,"type":"VEC2","name":"accessorUVs"},{"bufferView":0,"byteOffset":634212,"componentType":5125,"count":96,"type":"SCALAR","name":"accessorIndices"},{"bufferView":1,"byteOffset":2469528,"componentType":5126,"count":48,"max":[145.038574,167.64,-579.2216],"min":[30.73781,121.7168,-639.9682],"type":"VEC3","name":"accessorPositions"},{"bufferView":1,"byteOffset":2470104,"componentType":5126,"count":48,"type":"VEC3","name":"accessorNormals"},{"bufferView":2,"byteOffset":823176,"componentType":5126,"count":48,"type":"VEC2","name":"accessorUVs"},{"bufferView":0,"byteOffset":634596,"componentType":5125,"count":40044,"type":"SCALAR","name":"accessorIndices"},{"bufferView":1,"byteOffset":2470680,"componentType":5126,"count":20981,"max":[198.135742,193.215515,-62.367157],"min":[3.80779,0.0,-647.479],"type":"VEC3","name":"accessorPositions"},{"bufferView":1,"byteOffset":2722452,"componentType":5126,"count":20981,"type":"VEC3","name":"accessorNormals"},{"bufferView":2,"byteOffset":823560,"componentType":5126,"count":20981,"type":"VEC2","name":"accessorUVs"},{"bufferView":0,"byteOffset":794772,"componentType":5125,"count":21114,"type":"SCALAR","name":"accessorIndices"},{"bufferView":1,"byteOffset":2974224,"componentType":5126,"count":42488,"max":[205.5787,193.215515,-28.9928284],"min":[0.9729673,0.0,-752.2667],"type":"VEC3","name":"accessorPositions"},{"bufferView":1,"byteOffset":3484080,"componentType":5126,"count":42488,"type":"VEC3","name":"accessorNormals"},{"bufferView":2,"byteOffset":991408,"componentType":5126,"count":42488,"type":"VEC2","name":"accessorUVs"},{"bufferView":0,"byteOffset":879228,"componentType":5125,"count":466152,"type":"SCALAR","name":"accessorIndices"},{"bufferView":1,"byteOffset":3993936,"componentType":5126,"count":243870,"max":[198.124573,106.68,-59.6371651],"min":[0.3615436,7.633487,-647.1945],"type":"VEC3","name":"accessorPositions"},{"bufferView":1,"byteOffset":6920376,"componentType":5126,"count":243870,"type":"VEC3","name":"accessorNormals"},{"bufferView":2,"byteOffset":1331312,"componentType":5126,"count":243870,"type":"VEC2","name":"accessorUVs"},{"bufferView":0,"byteOffset":2743836,"componentType":5125,"count":702,"type":"SCALAR","name":"accessorIndices"},{"bufferView":1,"byteOffset":9846816,"componentType":5126,"count":286932,"max":[205.5787,193.215515,-28.9928284],"min":[0.3615436,0.0,-752.2667],"type":"VEC3","name":"accessorPositions"},{"bufferView":1,"byteOffset":13290000,"componentType":5126,"count":286932,"type":"VEC3","name":"accessorNormals"},{"bufferView":2,"byteOffset":3282272,"componentType":5126,"count":286932,"type":"VEC2","name":"accessorUVs"},{"bufferView":0,"byteOffset":2746644,"componentType":5125,"count":63,"type":"SCALAR","name":"accessorIndices"},{"bufferView":1,"byteOffset":16733184,"componentType":5126,"count":286776,"max":[205.5787,193.215515,-28.9928284],"min":[0.3615436,0.0,-752.2667],"type":"VEC3","name":"accessorPositions"},{"bufferView":1,"byteOffset":20174496,"componentType":5126,"count":286776,"type":"VEC3","name":"accessorNormals"},{"bufferView":2,"byteOffset":5577728,"componentType":5126,"count":286776,"type":"VEC2","name":"accessorUVs"}],"bufferViews":[{"buffer":0,"byteLength":2746896,"name":"bufferViewScalar"},{"buffer":0,"byteOffset":2746896,"byteLength":23615808,"byteStride":12,"name":"bufferViewFloatVec3"},{"buffer":0,"byteOffset":26362704,"byteLength":7871936,"byteStride":8,"name":"bufferViewFloatVec2"}],"buffers":[{"uri":"AnyConv.com__160921.bin","byteLength":34234640}],"materials":[{"pbrMetallicRoughness":{"metallicFactor":0.0,"roughnessFactor":0.0},"doubleSided":true,"name":"_auto_"},{"pbrMetallicRoughness":{"baseColorFactor":[0.501961,0.501961,0.501961,1.0],"metallicFactor":0.0,"roughnessFactor":0.0},"doubleSided":true,"name":"Translucent_Glass_Gray"},{"pbrMetallicRoughness":{"baseColorFactor":[0.886275,0.886275,0.886275,1.0],"metallicFactor":0.0,"roughnessFactor":0.0},"doubleSided":true,"name":"Color_M01"},{"pbrMetallicRoughness":{"baseColorFactor":[0.396078,1.0,0.396078,1.0],"metallicFactor":0.0,"roughnessFactor":0.0},"doubleSided":true,"name":"Color_G03"},{"pbrMetallicRoughness":{"baseColorFactor":[0.556863,0.478431,0.372549,1.0],"metallicFactor":0.0,"roughnessFactor":0.0},"doubleSided":true,"name":"_1"},{"pbrMetallicRoughness":{"metallicFactor":0.0,"roughnessFactor":0.0},"doubleSided":true,"name":"FrontColor"},{"pbrMetallicRoughness":{"baseColorFactor":[0.8,0.4,0.0,1.0],"metallicFactor":0.0,"roughnessFactor":0.0},"doubleSided":true,"name":"Color_C06"},{"pbrMetallicRoughness":{"baseColorFactor":[0.956863,0.643137,0.376471,1.0],"metallicFactor":0.0,"roughnessFactor":0.0},"doubleSided":true,"name":"M_0037_SandyBrown"},{"pbrMetallicRoughness":{"baseColorFactor":[0.666667,0.666667,0.666667,1.0],"metallicFactor":0.0,"roughnessFactor":0.0},"doubleSided":true,"name":"Color_M03"}]}